G04*
G04 #@! TF.GenerationSoftware,Altium Limited,Altium Designer,20.0.2 (26)*
G04*
G04 Layer_Color=255*
%FSLAX25Y25*%
%MOIN*%
G70*
G01*
G75*
%ADD20C,0.09843*%
%ADD21C,0.04724*%
%ADD22R,0.05906X0.05906*%
%ADD23C,0.05906*%
%ADD24C,0.05906*%
%ADD25R,0.05906X0.05906*%
%ADD26R,0.05906X0.05906*%
D20*
X374158Y252343D02*
D03*
X393843D02*
D03*
Y232658D02*
D03*
X374158D02*
D03*
X384000Y242500D02*
D03*
X393843Y275157D02*
D03*
X374158D02*
D03*
Y294843D02*
D03*
X393843D02*
D03*
X384000Y285000D02*
D03*
X396000Y213500D02*
D03*
Y314500D02*
D03*
X287500D02*
D03*
Y213000D02*
D03*
D21*
X314500Y225000D02*
D03*
Y255000D02*
D03*
D22*
X359500Y225500D02*
D03*
D23*
Y235500D02*
D03*
Y245500D02*
D03*
Y255500D02*
D03*
Y265500D02*
D03*
Y275500D02*
D03*
Y285500D02*
D03*
Y295500D02*
D03*
X329500Y225500D02*
D03*
Y235500D02*
D03*
Y245500D02*
D03*
Y255500D02*
D03*
Y265500D02*
D03*
Y275500D02*
D03*
Y285500D02*
D03*
Y295500D02*
D03*
D24*
X315000Y272000D02*
D03*
Y282000D02*
D03*
Y292000D02*
D03*
X334500Y308500D02*
D03*
X344500D02*
D03*
D25*
X315000Y302000D02*
D03*
D26*
X354500Y308500D02*
D03*
M02*
