M48
;Layer_Color=9474304
;FILE_FORMAT=2:5
INCH,TZ
;TYPE=PLATED
T1F00S00C0.02756
T2F00S00C0.03543
T3F00S00C0.05906
%
T01
X314500Y225000
Y255000
T02
X329500Y225500
Y235500
Y245500
Y255500
Y265500
Y275500
Y285500
Y295500
X315000Y292000
Y282000
Y272000
Y302000
X334500Y308500
X344500
X354500
X359500Y295500
Y285500
Y275500
Y265500
Y255500
Y245500
Y235500
Y225500
T03
X374158Y232658
Y252343
X393843
Y232658
X384000Y242500
X396000Y213500
X393843Y275157
X374158
Y294843
X393843
X384000Y285000
X287500Y213000
Y314500
X396000
M30
